<svg xmlns="http://www.w3.org/2000/svg" width="512" height="512" viewBox="0 0 512 512" version="1.1">
	<path d="M 274 12.680 C 249.946 13.772, 218.504 18.773, 199.311 24.559 C 176.812 31.341, 150.449 43.106, 131 55.041 C 126.325 57.911, 118.900 62.301, 114.500 64.797 C 99.891 73.086, 95.133 76.941, 82.475 90.744 C 67.006 107.612, 61.269 115.992, 47.724 141.500 C 31.189 172.637, 25.626 188.879, 22.890 214 C 18.623 253.179, 32.713 301.372, 62.212 348.500 C 77.011 372.143, 81.866 379.002, 89.134 386.536 L 95.922 393.571 94.380 399.536 C 92.475 406.905, 88.046 415.859, 82.943 422.659 C 80.814 425.497, 71.801 435.397, 62.915 444.659 C 53.276 454.706, 45.899 463.289, 44.629 465.935 C 43.458 468.374, 41.487 471.477, 40.250 472.831 C 37.177 476.192, 37.426 478.258, 41.098 479.883 C 47.839 482.867, 64.485 479.104, 87.474 469.400 C 105.720 461.699, 122.840 447.755, 141.176 425.664 C 146.579 419.153, 151 413.479, 151 413.054 C 151 412.629, 172.938 412.013, 199.750 411.686 C 226.563 411.359, 256.150 410.643, 265.500 410.096 C 274.850 409.548, 292.850 408.600, 305.500 407.989 C 355.047 405.595, 381.474 400.112, 406.963 386.937 C 423.502 378.388, 434.150 369.980, 459.728 345.269 C 491.613 314.464, 494.982 308.822, 500.935 276.251 C 505.624 250.599, 506.330 239.350, 505.188 208.500 C 504.131 179.949, 502.600 168.445, 497.466 150.500 C 485.720 109.440, 451.334 55.864, 425.475 38.328 C 409.218 27.305, 393.355 22.127, 365 18.589 C 335.597 14.920, 296.533 11.779, 285.500 12.196 C 282.750 12.300, 277.575 12.518, 274 12.680 M 202.313 105.127 C 197.904 106.369, 195 110.373, 195 115.212 C 195 122.649, 203.419 127.522, 210.094 123.950 C 211.633 123.126, 212.619 123.342, 214.663 124.950 C 218.099 127.652, 223.919 127.638, 227.375 124.920 L 230.020 122.839 233.087 125.420 C 235.334 127.311, 237.293 128, 240.418 128 L 244.682 128 245.301 152.906 C 245.641 166.605, 245.504 184.042, 244.996 191.656 C 244.488 199.270, 243.393 220.350, 242.563 238.500 C 240.516 283.260, 240.105 289.651, 238.403 303.256 C 236.505 318.430, 236.470 318.515, 233.262 315.991 C 230.283 313.648, 224.352 313.365, 221.410 315.425 C 220.084 316.354, 218.875 316.533, 217.938 315.940 C 215.740 314.550, 209.690 314.829, 207.410 316.425 C 206.084 317.354, 204.875 317.533, 203.938 316.940 C 203.147 316.440, 200.778 316.024, 198.673 316.015 C 189.839 315.980, 185.621 326.775, 191.984 333.138 L 194.968 336.122 206.734 335.518 C 226.076 334.525, 251.429 334.454, 289.209 335.289 L 324.918 336.078 328.959 332.156 C 332.415 328.802, 333 327.627, 333 324.040 C 333 315.974, 323.731 310.998, 317.212 315.564 C 315.150 317.009, 314.778 316.970, 312.354 315.064 C 309.619 312.913, 303.641 312.308, 301.087 313.925 C 300.141 314.524, 298.771 314.152, 296.937 312.795 C 294.343 310.878, 290.192 310.629, 285 312.081 C 282.728 312.716, 282.174 302.249, 282.068 256.674 C 281.967 213.684, 283.460 175.267, 286.629 139.336 L 287.260 132.171 292.414 132.703 C 296.896 133.166, 297.957 132.907, 300.562 130.715 C 303.115 128.567, 304.249 128.274, 308.259 128.726 C 311.633 129.106, 313.662 128.796, 315.445 127.628 C 316.812 126.733, 319.555 126, 321.542 126 C 326.678 126, 331 121.568, 331 116.299 C 331 111.255, 328.783 108.265, 323.300 105.914 C 317.990 103.638, 313.478 103.552, 297.500 105.422 C 282.188 107.214, 220.149 106.617, 207.500 104.556 C 206.400 104.377, 204.066 104.634, 202.313 105.127" stroke="none" fill="black" fill-rule="evenodd"/>
</svg>